<svg xmlns="http://www.w3.org/2000/svg" xmlns:xlink="http://www.w3.org/1999/xlink" width="19.281" height="29.621" viewBox="0 0 19.281 29.621"><defs><style>.a{stroke:#5d38db;}.b{clip-path:url(#a);}.c{fill:#3b5999;}</style><clipPath id="a"><path class="a" d="M19.627,16.662l1-5.361H14.375V7.822c0-1.467.873-2.9,3.673-2.9h2.842V.362A41.915,41.915,0,0,0,15.846,0C10.7,0,7.332,2.568,7.332,7.216V11.3H1.609v5.361H7.332V29.621h7.043s-1.313-9.72,0-12.959S19.627,16.662,19.627,16.662Z" transform="translate(1055.875 547.621)"/></clipPath></defs><g class="b" transform="translate(-1057.484 -547.621)"><path class="c" d="M24,4.918h3.287V.209C26.715.144,24.765,0,22.494,0c-10.4,0-7.569,9.689-7.983,11.108H9.28v5.265H14.51V29.621h6.411V16.374h5.017l.8-5.265H20.919C21.2,7.624,19.778,4.918,24,4.918Z" transform="translate(1048.844 547.621)"/></g></svg>