<svg xmlns="http://www.w3.org/2000/svg" xmlns:xlink="http://www.w3.org/1999/xlink" width="28.688" height="29.243" viewBox="0 0 28.688 29.243"><defs><style>.a{stroke:#5d38db;}.b{clip-path:url(#a);}.c{fill:#fbbb00;}.d{fill:#518ef8;}.e{fill:#28b446;}.f{fill:#f14336;}</style><clipPath id="a"><path class="a" d="M32.175,15.75l-.148-.626H18.422v5.759H26.55C25.706,24.891,21.79,27,18.591,27a9.519,9.519,0,0,1-6.405-2.552,9.145,9.145,0,0,1-2.728-6.455,9.432,9.432,0,0,1,2.679-6.448A9.112,9.112,0,0,1,18.5,9.056a8.3,8.3,0,0,1,5.414,2.109l4.092-4.071a14.479,14.479,0,0,0-9.64-3.713h0A14.9,14.9,0,0,0,7.819,7.671,14.842,14.842,0,0,0,3.656,18a14.693,14.693,0,0,0,4,10.16,15.263,15.263,0,0,0,11,4.465,13.574,13.574,0,0,0,9.886-4.155,14.6,14.6,0,0,0,3.8-10.111A16.836,16.836,0,0,0,32.175,15.75Z" transform="translate(1013.344 547.618)"/></clipPath></defs><g class="b" transform="translate(-1017 -551)"><g transform="translate(1017 551.278)"><path class="c" d="M6.358,17.336l-1,3.728-3.65.077A14.369,14.369,0,0,1,1.6,7.747h0l3.249.6,1.423,3.23a8.56,8.56,0,0,0,.08,5.763Z"/><path class="d" d="M28.437,11.664A14.338,14.338,0,0,1,23.324,25.53h0L19.23,25.32,18.651,21.7a8.549,8.549,0,0,0,3.678-4.365h-7.67V11.664H28.437Z"/><path class="e" d="M23.323,25.529h0A14.348,14.348,0,0,1,1.709,21.141l4.648-3.805A8.531,8.531,0,0,0,18.651,21.7Z"/><path class="f" d="M23.5,3.3l-4.647,3.8A8.53,8.53,0,0,0,6.277,11.573L1.6,7.747h0A14.347,14.347,0,0,1,23.5,3.3Z"/></g></g></svg>