<?xml version="1.0" encoding="utf-8"?>
<!-- Generator: Adobe Illustrator 22.0.0, SVG Export Plug-In . SVG Version: 6.00 Build 0)  -->
<svg version="1.1" id="Layer_1" xmlns="http://www.w3.org/2000/svg" xmlns:xlink="http://www.w3.org/1999/xlink" x="0px" y="0px"
	 viewBox="0 0 422.1 272" style="enable-background:new 0 0 422.1 272;" xml:space="preserve">
<style type="text/css">
	.st0{fill:#FFFFFF;}
</style>
<g>
	<path class="st0" d="M258,256.9C195.9,255,151,205.4,154.9,142.2c2.5-39.6,16.8-72.8,52.9-92.5c32.7-17.8,66.4-16.9,99.1,0.6
		c42.5,22.7,77.3,54.7,107.6,91.9c4.8,5.9,6.8,11.4,1.1,18.2c-33.3,39.6-72,72-121.7,88.9C282.4,253.3,270,254.4,258,256.9z
		 M205.5,145.9c-0.1,32.4,23.4,57.5,53.8,57.7c30,0.2,54.5-25.6,54.6-57.4c0.1-31.7-24.3-57.2-54.7-57.1
		C229.1,89.3,205.6,114.2,205.5,145.9z"/>
	<path class="st0" d="M89,27.2C89.3,11.6,101.6-0.5,116.4,0c14.4,0.5,25.8,13,25.7,28.1c-0.1,15.6-12.1,27.8-27.1,27.5
		C99.9,55.4,88.7,43.1,89,27.2z"/>
	<path class="st0" d="M149.4,243.3c0,15.6-11.9,27.8-26.9,27.7c-14.3-0.1-26-12.4-26.2-27.5c-0.2-15.3,11.8-28.1,26.6-28.1
		C138,215.3,149.4,227.4,149.4,243.3z"/>
	<path class="st0" d="M119.2,108c15,0.1,26.6,12.3,26.4,27.9c-0.2,15.1-11.7,27.3-26,27.5c-14.6,0.3-26.8-12.1-26.9-27.6
		C92.6,120.2,104.3,107.9,119.2,108z"/>
	<path class="st0" d="M74.3,84.5c-5.3,4.4-8.8,9.4-11.4,9c-3.5-0.6-8.1-4.9-8.8-8.4c-0.5-2.4,4.6-8.3,7.4-8.5
		C64.8,76.4,68.5,80.7,74.3,84.5z"/>
	<path class="st0" d="M15.8,120c4.3,5.7,8.9,9.2,8.5,12c-0.5,3.5-5,6.6-7.7,9.8c-3-2.7-8.2-5.3-8.4-8.3C8,130.1,12,126.3,15.8,120z"
		/>
	<path class="st0" d="M74.4,192.2c-5.5,4.4-8.9,9.2-11.5,8.8c-3.5-0.6-8-4.9-8.7-8.3c-0.5-2.4,4.6-8.2,7.3-8.3
		C64.9,184.1,68.5,188.3,74.4,192.2z"/>
</g>
<path class="st0" d="M50.9,84.7c0.2-7.8,6.3-13.9,13.7-13.6c7.2,0.3,12.9,6.5,12.8,14c-0.1,7.8-6.1,13.9-13.5,13.8
	C56.3,98.8,50.7,92.7,50.9,84.7z"/>
<path class="st0" d="M50.9,192.3c0.2-7.8,6.3-13.9,13.7-13.6c7.2,0.3,12.9,6.5,12.8,14c-0.1,7.8-6.1,13.9-13.5,13.8
	C56.3,206.4,50.7,200.2,50.9,192.3z"/>
<path class="st0" d="M3,130.6c0.2-7.8,6.3-13.9,13.7-13.6c7.2,0.3,12.9,6.5,12.8,14c-0.1,7.8-6.1,13.9-13.5,13.8
	C8.5,144.7,2.8,138.5,3,130.6z"/>
</svg>
